<svg width="531" height="558" viewBox="0 0 531 558" fill="none" xmlns="http://www.w3.org/2000/svg">
<path opacity="0.5" d="M265.5 504C389.488 504 490 400.354 490 272.5C490 144.646 389.488 41 265.5 41C141.512 41 41 144.646 41 272.5C41 400.354 141.512 504 265.5 504Z" stroke="white" stroke-opacity="0.77" stroke-width="81"/>
<path opacity="0.2" d="M228.64 552.213C236.726 552.213 243.281 545.45 243.281 537.107C243.281 528.763 236.726 522 228.64 522C220.555 522 214 528.763 214 537.107C214 545.45 220.555 552.213 228.64 552.213Z" stroke="#BF0830" stroke-width="10"/>
<path opacity="0.3" d="M57.5 63.4775C61.6421 63.4775 65 60.0128 65 55.7388C65 51.4648 61.6421 48 57.5 48C53.3579 48 50 51.4648 50 55.7388C50 60.0128 53.3579 63.4775 57.5 63.4775Z" stroke="#6258C4" stroke-width="5"/>
<path opacity="0.3" d="M433.5 183.478C437.642 183.478 441 180.013 441 175.739C441 171.465 437.642 168 433.5 168C429.358 168 426 171.465 426 175.739C426 180.013 429.358 183.478 433.5 183.478Z" stroke="#74BBFB" stroke-width="5"/>
</svg>
