<svg width="584" height="368" viewBox="0 0 584 368" fill="none" xmlns="http://www.w3.org/2000/svg">
<path opacity="0.5" d="M400 332C481.738 332 548 265.738 548 184C548 102.262 481.738 36 400 36C318.262 36 252 102.262 252 184C252 265.738 318.262 332 400 332Z" stroke="white" stroke-width="71"/>
<path opacity="0.3" fill-rule="evenodd" clip-rule="evenodd" d="M552.175 70.1258C548.886 70.1258 546.214 67.4592 546.214 64.1693C546.214 60.8794 548.886 58.2119 552.175 58.2119C555.464 58.2119 558.127 60.8794 558.127 64.1693C558.127 67.4592 555.464 70.1258 552.175 70.1258ZM552.175 75.3377C545.999 75.3377 541 70.337 541 64.1693C541 58.0007 545.999 53 552.175 53C558.342 53 563.341 58.0007 563.341 64.1693C563.341 70.337 558.342 75.3377 552.175 75.3377Z" fill="#1B2B7C"/>
<path opacity="0.3" fill-rule="evenodd" clip-rule="evenodd" d="M297.175 338.126C293.886 338.126 291.214 335.459 291.214 332.169C291.214 328.879 293.886 326.212 297.175 326.212C300.464 326.212 303.127 328.879 303.127 332.169C303.127 335.459 300.464 338.126 297.175 338.126ZM297.175 343.338C290.999 343.338 286 338.337 286 332.169C286 326.001 290.999 321 297.175 321C303.342 321 308.341 326.001 308.341 332.169C308.341 338.337 303.342 343.338 297.175 343.338Z" fill="#FFDA32"/>
<path opacity="0.3" d="M10.5 196C14.6421 196 18 192.642 18 188.5C18 184.358 14.6421 181 10.5 181C6.35786 181 3 184.358 3 188.5C3 192.642 6.35786 196 10.5 196Z" stroke="#6258C4" stroke-width="5"/>
<path opacity="0.3" fill-rule="evenodd" clip-rule="evenodd" d="M481.223 348.586C482.251 346.805 484.522 346.195 486.306 347.223C488.091 348.251 488.698 350.528 487.67 352.308C486.643 354.089 484.363 354.699 482.588 353.672C480.803 352.644 480.196 350.367 481.223 348.586ZM478 346.725C480.055 343.163 484.606 341.943 488.166 343.999C491.726 346.055 492.95 350.609 490.894 354.17C488.838 357.731 484.279 358.952 480.719 356.896C477.159 354.839 475.944 350.285 478 346.725Z" fill="#FB5472"/>
</svg>
